<svg width="95" height="91" viewBox="0 0 95 91" fill="none" xmlns="http://www.w3.org/2000/svg">
<g filter="url(#filter0_d_3_3)">
<path d="M46.9257 1.84528C47.0755 1.38489 47.7271 1.38489 47.8769 1.84528L56.7509 29.1588C57.2195 30.6008 58.5637 31.5767 60.08 31.5767H88.7988C89.2831 31.5767 89.4846 32.1973 89.0927 32.482L65.8583 49.3619C64.6319 50.2531 64.1184 51.833 64.5868 53.275L73.4618 80.5884C73.6113 81.049 73.0841 81.4317 72.6923 81.147L49.4589 64.2672C48.2322 63.3759 46.5704 63.3759 45.3437 64.2672L22.1103 81.147C21.7185 81.4317 21.1913 81.049 21.3407 80.5884L30.2157 53.275C30.6841 51.833 30.1707 50.2531 28.9443 49.3619L5.70988 32.482C5.31803 32.1973 5.51946 31.5767 6.00383 31.5767H34.7226C36.2388 31.5767 37.5831 30.6008 38.0517 29.1588L46.9257 1.84528Z" stroke="#525252" stroke-width="3" shape-rendering="crispEdges"/>
</g>
<defs>
<filter id="filter0_d_3_3" x="0" y="0" width="94.8026" height="90.7518" filterUnits="userSpaceOnUse" color-interpolation-filters="sRGB">
<feFlood flood-opacity="0" result="BackgroundImageFix"/>
<feColorMatrix in="SourceAlpha" type="matrix" values="0 0 0 0 0 0 0 0 0 0 0 0 0 0 0 0 0 0 127 0" result="hardAlpha"/>
<feOffset dy="4"/>
<feGaussianBlur stdDeviation="2"/>
<feComposite in2="hardAlpha" operator="out"/>
<feColorMatrix type="matrix" values="0 0 0 0 0 0 0 0 0 0 0 0 0 0 0 0 0 0 0.25 0"/>
<feBlend mode="normal" in2="BackgroundImageFix" result="effect1_dropShadow_3_3"/>
<feBlend mode="normal" in="SourceGraphic" in2="effect1_dropShadow_3_3" result="shape"/>
</filter>
</defs>
</svg>
